[CODE]

   Inception TS XViD - IMAGiNE
********************************************************************************************************************

Ripper ...........: IMAGiNE                                        IMDB Rating.......:9.3/10                             
Video Codec.......: XVID                                         Release Date......:31/07/10
Audio Codec.......:MP3                                           Theatre Date......:16/07/10
Audio Bitrate.....:128                                              Runtime.......:2h 19mn
Subtitles.........:NIL                                                 Language..........:ENGLISH
Resolution...... 640 x 256                                     IMDb URL..........:http://www.imdb.com/title/tt1375666/


DETAILS:

Video
Format                           : MPEG-4 Visual
Format profile                   : Streaming Video@L1
Format settings, BVOP            : Yes
Format settings, QPel            : No
Format settings, GMC             : No warppoints
Format settings, Matrix          : Default
Muxing mode                      : Packed bitstream
Codec ID                         : XVID
Codec ID/Hint                    : XviD
Duration                         : 2h 19mn
Bit rate                         : 1 271 Kbps
Width                            : 640 pixels
Height                           : 256 pixels
Display aspect ratio             : 2.500
Frame rate                       : 25.000 fps
Resolution                       : 24 bits
Colorimetry                      : 4:2:0
Scan type                        : Progressive
Bits/(Pixel*Frame)               : 0.310
Stream size                      : 1.24 GiB (90%)
Writing library                  : XviD 50

Audio
Format                           : MPEG Audio
Format version                   : Version 1
Format profile                   : Layer 3
Codec ID                         : 55
Codec ID/Hint                    : MP3
Duration                         : 2h 19mn
Bit rate mode                    : Constant
Bit rate                         : 128 Kbps
Channel(s)                       : 2 channels
Sampling rate                    : 44.1 KHz
Resolution                       : 16 bits
Stream size                      : 128 MiB (9%)
Alignment                        : Split accross interleaves
Interleave, duration             : 40 ms (1.00 video frame)
Interleave, preload duration     : 500 ms


NOTES:

IMAGiNE bringing you another release.....Inception 

Sources used......video was vobs off ELEKTRI4KA and line audio off prism....many thanks both 

Right work done.....firstly took the vobs we had and made a script to crop it ,reszie,white balance,brightness and contrast.
Then dropped that into vdub and used some more filters ...inc rgb eq,smoother,sharpen,hue,intes and a few more.
Now the audio is taken off prisms TS release so full credit for audio and syncing goes to them 

Enjoy this top film 

[/CODE]
Screens: 
http://a.imageshack.us/img709/7308/vlcsnap489453.png 
http://a.imageshack.us/img843/4262/vlcsnap489693.png 
http://a.imageshack.us/img687/476/vlcsnap490632.png 
http://a.imageshack.us/img824/3872/vlcsnap491410.png 
http://a.imageshack.us/img269/2323/vlcsnap491617.png